<svg width="86" height="91" viewBox="0 0 86 91" fill="none" xmlns="http://www.w3.org/2000/svg">
<g clip-path="url(#clip0_11_125)">
<path d="M85.4851 18.6049C87.6761 28.3442 82.6166 39.254 75.1789 45.5125C70.8611 49.1482 66.1049 49.6604 60.6691 49.6559C54.8356 49.6494 49.9697 52.1816 46.7142 56.9749C46.7724 57.0286 46.828 57.0804 46.8862 57.1341C47.2216 57.4397 47.557 57.7495 47.8884 58.0593C48.3421 58.483 48.7916 58.9113 49.2343 59.3457L45.3016 58.3626L33.2559 47.4163L29.3037 43.8277L27.7942 42.455L27.8758 41.9688C28.2327 42.2184 28.5875 42.47 28.9424 42.7261C29.1229 42.8553 29.3057 42.9865 29.4842 43.1176C29.8476 43.3822 30.2109 43.6468 30.5745 43.9114C36.3521 40.097 34.0021 32.0916 33.7159 26.2894C33.4277 20.4504 35.0985 14.8933 38.614 10.21C40.2848 7.98333 42.2995 6.10948 44.5506 4.60112C49.0687 1.56575 54.5259 -0.000549974 60.0154 0.00171143C61.6495 0.00171143 63.2881 0.139374 64.905 0.423463C74.2757 2.05846 83.3283 9.02895 85.4848 18.6049H85.4851Z" fill="#DBA740"/>
<path d="M60.0154 0.00171335C60.4626 0.93539 58.7381 2.22637 52.7992 4.00327C33.6642 9.73253 41.0109 26.9972 38.8849 37.6962C38.3058 40.6106 35.0446 44.1418 34.9177 44.7419C34.7932 45.34 37.2378 50.2945 37.2378 50.2945L33.2557 47.416L29.6218 44.7914L29.3037 43.8274L28.9424 42.7258C29.1229 42.855 29.3057 42.9862 29.4843 43.1173C29.8476 43.3819 30.2109 43.6465 30.5745 43.9111C36.3521 40.0967 34.0021 32.0913 33.7159 26.2891C33.4277 20.4502 35.0986 14.8931 38.614 10.2097C43.6415 3.51056 51.7931 -0.00280946 60.0154 0.00171335Z" fill="#DBA740"/>
<path d="M52.7994 4.00325C52.5541 4.07646 52.3112 4.15165 52.0702 4.22911C51.8659 4.29582 51.6616 4.36677 51.4619 4.43772C50.9929 4.60139 50.5414 4.77326 50.1072 4.95417C50.0038 4.99714 49.9007 5.0401 49.7976 5.08307C49.4577 5.2295 49.1266 5.38016 48.8084 5.53507C48.7096 5.58227 48.6127 5.63174 48.516 5.68121C48.4451 5.71372 48.3784 5.75018 48.3095 5.78467C48.2256 5.8299 48.1439 5.87286 48.06 5.91809C47.9289 5.98452 47.7998 6.05773 47.673 6.12869C47.5484 6.19766 47.428 6.27087 47.3074 6.33956C47.1636 6.42352 47.0195 6.51171 46.8819 6.60217C46.8215 6.63637 46.7613 6.6751 46.7011 6.71382C46.5615 6.80654 46.4217 6.89898 46.2841 6.99367C46.2347 7.0259 46.1872 7.06038 46.14 7.09487C46.0324 7.1678 45.927 7.24327 45.8261 7.31847C45.8216 7.32271 45.8151 7.32497 45.8151 7.32921C45.6648 7.43691 45.5207 7.54659 45.3789 7.65852C45.2195 7.78318 45.0692 7.90813 44.9206 8.03505C44.6692 8.2479 44.4285 8.46726 44.1982 8.68888L44.1703 8.71686C46.6969 6.5462 49.7006 4.92618 52.9389 3.96226C52.8917 3.97526 52.8465 3.99025 52.7994 4.00325ZM85.485 18.6048C83.3282 9.02893 74.2756 2.05844 64.9052 0.423165C64.4986 0.352214 64.0943 0.292004 63.6881 0.238295C63.501 0.214551 63.3137 0.190806 63.1225 0.171584C63.1117 0.169323 63.1033 0.169323 63.0922 0.167344C62.2732 0.0791491 61.4496 0.0254408 60.6284 0.00791491C60.4261 0.00367478 60.2218 0.00169605 60.0153 0.00169605C60.0133 -0.000565351 60.0091 -0.000565351 60.0068 0.00169605C59.7876 0.00169605 59.5703 0.00367478 59.3488 0.0101763C59.1296 0.0144164 58.9058 0.0231794 58.6866 0.0316596C58.4628 0.0404226 58.2413 0.0554044 58.0201 0.0703862C57.8673 0.0811278 57.7124 0.0941309 57.5556 0.104873C57.476 0.111374 57.4008 0.117876 57.3234 0.126356C56.8954 0.167344 56.4654 0.214551 56.0396 0.274761C55.8204 0.305007 55.6009 0.339493 55.3816 0.373697C54.9431 0.44267 54.5109 0.522101 54.0809 0.616798C53.8636 0.662026 53.6464 0.711494 53.4336 0.760962C53.2186 0.812692 53.0036 0.864421 52.7883 0.920391C52.7711 0.924631 52.7542 0.928871 52.7369 0.933112C52.5434 0.984841 52.3476 1.03855 52.1498 1.09452C51.9563 1.15049 51.7608 1.20844 51.5628 1.26865C51.5478 1.27091 51.5328 1.27741 51.5176 1.28391C51.3071 1.34836 51.0983 1.41507 50.8898 1.48602C50.6813 1.55698 50.4728 1.63245 50.2663 1.70538C50.0578 1.78086 49.8512 1.85831 49.6492 1.94C49.6492 1.94 49.647 1.93774 49.645 1.94C49.4404 2.01972 49.2384 2.10141 49.0364 2.18734C48.8644 2.26056 48.6943 2.33151 48.5225 2.40896C48.4578 2.43497 48.3999 2.46295 48.3417 2.49094C47.9699 2.6563 47.6021 2.83495 47.2407 3.0201C47.0475 3.11904 46.8517 3.21996 46.6582 3.32766C46.4838 3.42009 46.3121 3.51479 46.142 3.61174C45.9143 3.74064 45.6885 3.87633 45.4648 4.01399C45.2927 4.11717 45.1249 4.22487 44.9551 4.33454C44.7703 4.45072 44.5875 4.57341 44.4067 4.69807C44.2239 4.82075 44.0434 4.94993 43.8651 5.07685C43.7165 5.18229 43.5705 5.28971 43.4284 5.40164C43.4176 5.40815 43.4091 5.41663 43.3984 5.42313C43.3639 5.44885 43.3295 5.47486 43.2953 5.50058C43.1857 5.58454 43.078 5.66623 42.9704 5.75216C42.9534 5.76517 42.9404 5.77817 42.9232 5.79089C42.865 5.83612 42.8048 5.88361 42.7492 5.93081C42.5986 6.05123 42.448 6.17618 42.3019 6.30083C42.1341 6.44302 41.9663 6.58916 41.8007 6.73757C41.6739 6.85149 41.547 6.96569 41.4244 7.08413C41.3642 7.13558 41.3018 7.19381 41.2461 7.25402C41.1063 7.38518 40.9707 7.51634 40.8354 7.65202C40.042 8.44578 39.2979 9.29776 38.6142 10.21C35.0984 14.8936 33.4279 20.4507 33.7158 26.2894C33.7203 26.3886 33.7265 26.4895 33.731 26.593C33.7375 26.6594 33.7395 26.7261 33.746 26.7928C33.7652 27.0704 33.787 27.3545 33.8127 27.6383C33.8257 27.789 33.8384 27.9396 33.8537 28.0923C33.8794 28.3549 33.9073 28.6237 33.9353 28.8971C33.9373 28.912 33.9395 28.9313 33.9418 28.9508C33.9695 29.2024 33.9955 29.4565 34.0234 29.7123C34.1136 30.5343 34.2062 31.3753 34.2814 32.2208C34.2986 32.4101 34.3116 32.5995 34.3266 32.7867C34.3331 32.8791 34.3416 32.9738 34.3481 33.0662C34.3653 33.3503 34.3845 33.6322 34.3975 33.9117C34.3975 33.9335 34.3975 33.955 34.3998 33.9742C34.406 34.1398 34.4125 34.3055 34.419 34.4711C34.417 34.4819 34.419 34.4929 34.419 34.5014C34.4255 34.6755 34.4275 34.8499 34.4277 35.0263C34.4297 35.1187 34.4277 35.2112 34.4277 35.3059C34.4277 35.3618 34.4277 35.4221 34.4255 35.4803C34.4232 35.6329 34.419 35.7836 34.4147 35.9343C34.406 36.2353 34.3868 36.5344 34.3611 36.8312C34.3546 36.9151 34.3458 37.0014 34.3373 37.0831C34.3289 37.169 34.3201 37.251 34.3094 37.3346C34.2921 37.5025 34.2684 37.6682 34.2404 37.8338C34.2297 37.9178 34.2147 37.9975 34.202 38.0792C34.189 38.1609 34.1718 38.2426 34.1545 38.3243C34.1415 38.4063 34.1223 38.4857 34.1051 38.5674C34.0729 38.7246 34.0342 38.8795 33.9955 39.0344C33.9932 39.0366 33.9932 39.0409 33.9912 39.0474C33.9503 39.2043 33.9073 39.3592 33.8556 39.5141C33.8299 39.5915 33.8039 39.669 33.7805 39.7444C33.7268 39.8971 33.6709 40.052 33.6107 40.1981C33.5547 40.3361 33.4988 40.4692 33.4386 40.6026C33.4341 40.6157 33.4256 40.6287 33.4214 40.6414C33.4172 40.6414 33.4191 40.6436 33.4191 40.6436C33.3847 40.7168 33.3482 40.7878 33.3118 40.8588C33.275 40.9339 33.2386 41.0049 33.1999 41.0739C33.1589 41.1491 33.1202 41.2223 33.0773 41.2955L33.0623 41.3192L32.9547 41.4956C32.9267 41.5408 32.8945 41.5903 32.8645 41.6375C32.8236 41.7 32.7806 41.7644 32.7354 41.8269C32.7117 41.8634 32.6837 41.9001 32.658 41.9343C32.6193 41.9903 32.5783 42.044 32.5377 42.098C32.4882 42.1647 32.4365 42.2292 32.3828 42.2916C32.3289 42.3583 32.2752 42.4205 32.2215 42.483C32.202 42.5068 32.1828 42.526 32.1656 42.5475C32.1311 42.5862 32.0966 42.6252 32.0602 42.6617C32.0023 42.7284 31.9398 42.7906 31.8754 42.8553L31.8732 42.8573C31.6839 43.0467 31.4819 43.2273 31.2669 43.404C31.0496 43.5781 30.8196 43.748 30.5744 43.9116C30.2111 43.6471 29.8475 43.3822 29.4841 43.1176C29.3059 42.9865 29.1231 42.8553 28.9423 42.7261C28.9253 42.7131 28.9101 42.7024 28.8928 42.6896C28.5552 42.4465 28.2156 42.2054 27.8757 41.9688C27.6155 41.7817 27.3491 41.5965 27.0847 41.4136C25.4116 40.2521 23.7043 39.1505 21.9414 38.1437L21.9391 38.1414C21.0681 37.6445 20.1866 37.1713 19.2879 36.7238C18.4364 36.302 17.5439 35.8998 16.6279 35.6245C15.0647 35.1448 13.4371 35.0178 11.8544 35.7406C11.1964 36.0417 10.6568 36.4657 10.2333 36.9754C9.15803 38.2621 8.82466 40.08 9.20324 41.7882C9.86547 44.7699 12.3618 47.4742 14.3036 49.7138C15.2648 50.8262 16.2689 51.8868 17.3097 52.9109C18.3395 54.0662 19.419 55.1763 20.52 56.2606C20.4833 56.4263 20.4533 56.5939 20.4211 56.7598C14.624 56.6694 8.55598 58.3473 4.42549 62.5877C0.451806 66.6667 -0.857688 72.822 0.544191 78.2694C2.84506 87.2105 11.7019 91.8469 20.09 90.8722C23.313 90.4957 26.4674 89.2929 29.1553 87.189C34.6447 82.8883 37.1498 76.1567 36.3435 69.3174C36.539 69.4658 36.7348 69.61 36.9283 69.7564C38.2528 70.7503 39.5903 71.7269 40.958 72.6606C42.1146 73.4566 43.2908 74.2162 44.4971 74.9325C46.6819 76.2319 49.1288 77.5356 51.7543 77.3572C52.3756 77.3163 52.9432 77.2085 53.4551 77.0409C57.5706 75.72 58.2478 70.7223 55.9492 67.011C55.3322 66.0149 54.6098 65.064 53.8292 64.1498C53.8269 64.1433 53.8227 64.1391 53.8162 64.1326C52.6335 62.7426 51.3263 61.4347 50.077 60.1762C49.7976 59.8964 49.5179 59.6168 49.2342 59.3457C48.7912 58.911 48.3417 58.483 47.888 58.059C47.4989 57.6955 47.1077 57.3342 46.7141 56.9749C47.0517 56.478 47.4066 56.0068 47.7764 55.5593C47.8021 55.529 47.8278 55.4991 47.8538 55.4688C47.9117 55.3979 47.9719 55.3289 48.0301 55.2622C48.114 55.1613 48.2019 55.0643 48.288 54.9696C48.3612 54.8879 48.4321 54.8082 48.5095 54.7311L48.518 54.7223C49.6447 53.526 50.907 52.5344 52.2855 51.7576C52.3499 51.7189 52.4165 51.6824 52.4832 51.6459C52.7971 51.4738 53.1152 51.3146 53.4421 51.164C53.8054 50.9983 54.1752 50.8434 54.5538 50.7058C54.8033 50.6111 55.057 50.5248 55.3107 50.4431C55.6161 50.3484 55.9277 50.2603 56.2416 50.1828C56.5343 50.1099 56.8287 50.0432 57.1299 49.9872C57.5856 49.8967 58.0543 49.8235 58.5318 49.7721C59.0886 49.7096 59.6562 49.6709 60.2348 49.6601C60.3789 49.6579 60.523 49.6559 60.669 49.6559C66.1048 49.6601 70.8611 49.1479 75.1789 45.5122C82.6166 39.2537 87.676 28.3441 85.485 18.6048ZM20.722 62.3879C20.8726 62.8653 21.0511 63.3323 21.2661 63.784C21.9736 65.2878 23.0336 66.641 24.4485 67.7124C26.1837 69.0268 28.2114 69.8251 30.3594 70.0769C29.3573 74.2419 27.1533 78.3833 23.5088 80.7219C22.3928 81.4382 21.15 81.9547 19.8685 82.2388C16.9376 82.8861 13.8027 82.3139 11.5061 80.128C8.40539 77.1721 8.58395 72.1617 10.7385 68.7192C11.9061 66.8542 13.6648 65.404 15.5702 64.3412C17.1763 63.444 19.0641 63.1214 20.722 62.3879ZM21.9908 57.6762C22.0682 57.7495 22.1434 57.8246 22.2208 57.8979C25.8975 61.3442 29.9014 64.4596 33.933 67.5037C33.1569 67.6222 32.3656 67.82 31.7183 67.8048C30.5058 67.7791 29.2779 67.5232 28.1405 67.0563C27.3986 66.753 26.6954 66.3592 26.0588 65.8817C25.029 65.1092 24.1818 64.1238 23.5325 63.0137C22.5883 61.4067 22.0617 59.5371 21.9908 57.6762ZM15.4476 88.5724C13.8369 88.3378 12.2672 87.8388 10.8029 87.1138C7.56912 85.513 4.86849 82.8151 3.46859 79.4697C1.56975 74.9325 2.10965 69.3584 5.08123 65.3953C6.91311 62.9515 9.36032 61.2173 12.0867 60.0383C14.652 58.9217 17.4665 58.2959 20.2468 58.0313C20.1586 59.0876 20.2168 60.1395 20.4123 61.1613C18.3674 61.1809 16.0818 62.2242 14.411 63.0999C12.1039 64.3024 10.0632 66.0644 8.70854 68.302C6.1842 72.4757 6.20143 78.1165 9.8375 81.6341C13.4866 85.1644 19.0814 85.3841 23.4141 83.0755C23.986 82.7699 24.5278 82.4344 25.0333 82.0709L25.0355 82.0686C28.9403 79.2806 30.9699 74.8703 31.8195 70.1736C32.5312 70.1843 33.3697 70.1456 34.1396 69.978C34.4492 69.9133 34.7481 69.8251 35.021 69.7112C35.2061 80.1928 26.4719 90.1794 15.4476 88.5724ZM47.5227 61.5014C49.6512 63.6011 57.5039 70.3435 53.8054 73.7514C52.3089 75.1326 50.0662 74.6099 48.3739 73.8676C48.2708 73.8246 48.1742 73.7794 48.0773 73.7342C45.6518 72.5981 43.3662 71.0601 41.1814 69.524C37.2682 66.7744 33.4666 63.8312 29.7206 60.858C28.0436 59.5241 26.388 58.1689 24.7753 56.766C22.3411 54.6536 20.0018 52.4332 17.8256 50.0409C16.0324 48.0701 14.2477 45.9531 12.8565 43.675C12.7232 43.4512 12.5876 43.2211 12.4565 42.9864C12.1556 42.3239 11.9406 41.6353 11.8801 40.9297C11.8287 40.3188 11.8674 39.8196 11.9855 39.4216C12.276 38.447 13.0371 38.0642 14.0412 38.0577C17.0452 38.034 22.2445 41.3687 23.6636 42.2979C27.9252 45.0862 31.9011 48.3242 35.894 51.4803C39.9107 54.6513 43.8759 57.9041 47.5227 61.5014ZM73.0243 43.2575C70.7387 45.1099 68.1627 46.3404 65.2298 46.6935C62.428 47.0267 59.6113 47.014 56.8267 47.5152C52.5971 48.2745 48.6751 50.6238 46.0626 54.0167C45.697 54.4899 45.3571 54.9849 45.0475 55.4968C44.235 54.7867 43.4156 54.0834 42.5856 53.3948C40.5085 51.6652 38.4076 49.9504 36.2746 48.2682L36.2726 48.266C34.7566 47.0677 33.2256 45.8887 31.6796 44.7334C32.5054 44.2257 33.1999 43.6425 33.787 42.9949C38.999 37.2464 35.5242 26.4638 37.3391 19.5535C38.4873 15.1904 40.93 11.5029 44.1638 8.72336L44.1703 8.71686C46.6969 6.5462 49.7006 4.92618 52.9389 3.96226C54.9279 3.37062 57.003 3.02858 59.1101 2.95537C68.4873 2.63482 78.5075 7.85414 81.8337 16.9998C85.1409 26.0915 80.262 37.3971 73.0243 43.2575ZM52.7994 4.00325C52.5541 4.07646 52.3112 4.15165 52.0702 4.22911C51.8659 4.29582 51.6616 4.36677 51.4619 4.43772C50.9929 4.60139 50.5414 4.77326 50.1072 4.95417C50.0038 4.99714 49.9007 5.0401 49.7976 5.08307C49.4577 5.2295 49.1266 5.38016 48.8084 5.53507C48.7096 5.58227 48.6127 5.63174 48.516 5.68121C48.4451 5.71372 48.3784 5.75018 48.3095 5.78467C48.2256 5.8299 48.1439 5.87286 48.06 5.91809C47.9289 5.98452 47.7998 6.05773 47.673 6.12869C47.5484 6.19766 47.428 6.27087 47.3074 6.33956C47.1636 6.42352 47.0195 6.51171 46.8819 6.60217C46.8215 6.63637 46.7613 6.6751 46.7011 6.71382C46.5615 6.80654 46.4217 6.89898 46.2841 6.99367C46.2347 7.0259 46.1872 7.06038 46.14 7.09487C46.0324 7.1678 45.927 7.24327 45.8261 7.31847C45.8216 7.32271 45.8151 7.32497 45.8151 7.32921C45.6648 7.43691 45.5207 7.54659 45.3789 7.65852C45.2195 7.78318 45.0692 7.90813 44.9206 8.03505C44.6692 8.2479 44.4285 8.46726 44.1982 8.68888L44.1703 8.71686C46.6969 6.5462 49.7006 4.92618 52.9389 3.96226C52.8917 3.97526 52.8465 3.99025 52.7994 4.00325Z" fill="#DBA740"/>
<path d="M15.4476 88.5724C13.837 88.3378 12.2673 87.8389 10.8029 87.1138C7.56918 85.513 4.86854 82.8152 3.46864 79.4697C1.5698 74.9325 2.1097 69.3584 5.08128 65.3953C6.91316 62.9516 9.36037 61.2173 12.0867 60.0383C14.652 58.9217 17.4665 58.2959 20.2468 58.0313C20.1587 59.0877 20.2169 60.1395 20.4124 61.1614C18.3675 61.1809 16.0819 62.2242 14.411 63.1C12.104 64.3025 10.0633 66.0644 8.70859 68.302C6.18425 72.4757 6.20148 78.1165 9.83755 81.6341C13.4866 85.1645 19.0814 85.3841 23.4142 83.0755C23.986 82.7699 24.5279 82.4344 25.0333 82.0709L25.0356 82.0686C28.9403 79.2806 30.97 74.8703 31.8195 70.1736C32.5312 70.1844 33.3697 70.1457 34.1396 69.978C34.4493 69.9133 34.7482 69.8251 35.0211 69.7112C35.2061 80.1928 26.4719 90.1794 15.4476 88.5724Z" fill="#DBA740"/>
<path d="M33.9332 67.5038C33.1571 67.6222 32.3658 67.8201 31.7185 67.8048C30.5059 67.7791 29.2781 67.5233 28.1406 67.0563C27.3987 66.753 26.6955 66.3592 26.059 65.8818C25.0292 65.1092 24.1819 64.1238 23.5327 63.0137C22.5885 61.4067 22.0619 59.5371 21.991 57.6763C22.0684 57.7495 22.1435 57.8247 22.2209 57.8979C25.8977 61.3443 29.9016 64.4596 33.9332 67.5038Z" fill="#DBA740"/>
<path d="M53.8055 73.7515C52.3089 75.1326 50.0663 74.6099 48.3739 73.8676C48.2708 73.8247 48.1742 73.7794 48.0773 73.7342C45.6518 72.5981 43.3662 71.0601 41.1815 69.524C37.2683 66.7745 33.4666 63.8312 29.7206 60.8581C28.0436 59.5241 26.388 58.169 24.7754 56.7661C22.3411 54.6536 20.0019 52.4332 17.8256 50.0409C16.0324 48.0701 14.2477 45.9532 12.8566 43.6751C12.7232 43.4512 12.5876 43.2211 12.4565 42.9865C12.1556 42.3239 11.9406 41.6353 11.8802 40.9297C11.8287 40.3189 11.8675 39.8197 11.9855 39.4217C12.276 38.447 13.0371 38.0642 14.0412 38.0577C17.0453 38.034 22.2445 41.3687 23.6636 42.2979C27.9252 45.0862 31.9012 48.3242 35.8941 51.4803C39.9107 54.6514 43.8759 57.9041 47.5227 61.5014C49.6512 63.6011 57.504 70.3435 53.8055 73.7515Z" fill="#DBA740"/>
<path d="M40.1368 25.4434C40.3086 24.0744 40.5781 22.7489 41.0442 21.4475C41.0872 21.3273 40.9067 21.2383 40.8643 21.3598C40.4026 22.6785 40.0888 24.0376 40.013 25.4352C40.0091 25.5058 40.128 25.5135 40.1368 25.4431V25.4434Z" fill="#DBA740"/>
<path d="M53.8574 18.8056C56.7106 15.2816 57.5836 11.2578 55.8074 9.81811C54.0312 8.37847 50.2783 10.0682 47.4252 13.5922C44.572 17.1162 43.6989 21.1401 45.4752 22.5797C47.2514 24.0194 51.0042 22.3296 53.8574 18.8056Z" fill="#DBA740"/>
</g>
<defs>
<clipPath id="clip0_11_125">
<rect width="86" height="91" fill="white"/>
</clipPath>
</defs>
</svg>
