<?xml version="1.0" encoding="UTF-8"?>
<svg id="Vrstva_1" data-name="Vrstva 1" xmlns="http://www.w3.org/2000/svg" viewBox="0 0 413.25 106.4">
  <defs>
    <style>
      .cls-1 {
        fill: #fff;
        stroke-width: 0px;
      }
    </style>
  </defs>
  <g>
    <path class="cls-1" d="M131.81,1.12c1.64.69,3.07,1.64,4.28,2.85,1.21,1.21,2.18,2.64,2.9,4.28.72,1.64,1.08,3.42,1.08,5.32v8.48c0,.4-.15.75-.43,1.04-.23.29-.58.43-1.04.43h-8.74c-.35,0-.61-.14-.78-.43s-.17-.61,0-.95c.35-.69.7-1.77,1.08-3.25.37-1.47.62-3.5.74-6.1-.17-1.04-.67-1.9-1.48-2.6-.81-.69-1.77-1.04-2.87-1.04h-11.29c-1.22,0-2.26.43-3.13,1.3-.87.87-1.3,1.9-1.3,3.11v6.23c0,1.5.24,2.75.74,3.76s1.14,1.83,1.95,2.46c.4.29.8.53,1.17.74.38.2.71.36,1,.48.69.29,1.33.35,1.91.17.52-.12,1.13-.24,1.82-.39.69-.14,1.3-.27,1.82-.39.81-.17,1.5.06,2.08.69.4.46.87.99,1.39,1.6s.93,1.05,1.21,1.34c.23.29.49.46.78.52.12.06.22.1.3.13.09.03.19.07.3.13l.35.17c1.73.64,3.34,1.4,4.81,2.29,1.48.89,2.78,1.97,3.9,3.24,1.13,1.27,2.02,2.8,2.69,4.58.66,1.79,1,3.89,1,6.31v6.23c0,1.9-.36,3.68-1.08,5.32-.72,1.64-1.69,3.07-2.9,4.28-1.21,1.21-2.64,2.16-4.28,2.85-1.64.69-3.39,1.04-5.23,1.04h-11.25c-1.85,0-3.59-.35-5.23-1.04-1.64-.69-3.07-1.64-4.28-2.85s-2.18-2.64-2.9-4.28c-.72-1.64-1.08-3.42-1.08-5.32v-8.48c0-.4.14-.75.43-1.04.23-.29.57-.43,1.03-.43h8.66c.35,0,.61.15.78.43.17.29.17.61,0,.95-.35.69-.71,1.77-1.08,3.24-.38,1.47-.62,3.5-.74,6.1.17,1.04.67,1.9,1.48,2.6s1.77,1.04,2.87,1.04h11.29c1.22,0,2.26-.43,3.13-1.3.87-.87,1.3-1.9,1.3-3.12v-6.14c0-2.02-.45-3.6-1.35-4.76-.9-1.15-2.01-2.05-3.34-2.68-.58-.29-1.23-.53-1.95-.74-.73-.2-1.41-.39-2.04-.56-.4-.17-.87-.2-1.39-.09-.46.12-1.02.22-1.65.3-.64.09-1.22.19-1.74.3-.58.17-1.19,0-1.82-.52-.46-.46-1-.98-1.61-1.56-.61-.58-1.06-1.01-1.35-1.3-.12-.12-.26-.22-.43-.3-.17-.09-.32-.19-.44-.3-.23-.12-.49-.24-.78-.39-.29-.14-.49-.27-.61-.39-2.51-1.33-4.58-3.14-6.21-5.45-1.63-2.31-2.44-5.48-2.44-9.52v-6.23c0-1.9.36-3.68,1.08-5.32.72-1.64,1.69-3.07,2.9-4.28s2.64-2.16,4.28-2.85c1.64-.69,3.39-1.04,5.23-1.04h11.25c1.84,0,3.59.35,5.23,1.04Z"/>
    <path class="cls-1" d="M180.04,37.2c.29.58.29,1.12,0,1.64l-1.21,2.42c-.29.58-.43,1.15-.43,1.73v15.05c.06,2.19.23,3.91.52,5.15.29,1.24.58,2.18.87,2.81.17.29.14.61-.09.95-.17.29-.43.43-.78.43h-9.08c-.35,0-.6-.14-.78-.43-.17-.23-.2-.55-.09-.95.29-.63.58-1.57.87-2.81.29-1.24.46-2.96.52-5.15v-9.77c0-1.73-.61-3.2-1.83-4.41-1.22-1.21-2.67-1.82-4.35-1.82h-7.05c-.64,0-1.19.23-1.65.69-.46.4-.7.95-.7,1.64v13.06c0,2.42.16,4.3.48,5.62.32,1.33.62,2.31.91,2.94.12.4.09.72-.09.95-.17.29-.43.43-.78.43h-9.08c-.35,0-.6-.14-.78-.43-.17-.23-.2-.55-.09-.95.29-.63.56-1.54.82-2.73.26-1.18.45-2.81.56-4.89v-15.4c0-.58-.15-1.15-.43-1.73l-1.21-2.42c-.35-.52-.35-1.07,0-1.64l1.21-2.42c.29-.58.43-1.15.43-1.73v-10.29c-.12-2.08-.3-3.72-.56-4.93-.26-1.21-.53-2.13-.82-2.77-.12-.35-.09-.63.09-.86.17-.29.43-.43.78-.43h9.08c.35,0,.61.14.78.43.17.23.2.52.09.86-.29.64-.59,1.63-.91,2.98-.32,1.36-.48,3.22-.48,5.58v4.93c0,1.5.52,2.78,1.57,3.85,1.04,1.07,2.32,1.6,3.83,1.6h7.48c.75,0,1.39-.26,1.91-.78.52-.52.78-1.15.78-1.9v-8.22c-.06-2.19-.23-3.92-.52-5.19-.29-1.27-.58-2.22-.87-2.85-.12-.35-.09-.63.09-.86.17-.29.43-.43.78-.43h9.08c.35,0,.61.14.78.43.23.35.26.64.09.86-.29.64-.58,1.59-.87,2.85-.29,1.27-.46,3-.52,5.19v9.95c0,.58.14,1.15.43,1.73l1.21,2.42Z"/>
    <path class="cls-1" d="M218.96,34.86c.17.35.37.74.61,1.17.23.43.43.82.6,1.17.29.58.29,1.15,0,1.73-.17.35-.38.73-.6,1.17-.23.43-.43.82-.61,1.17-.29.46-.43,1.04-.43,1.73v13.49c0,1.5-.29,2.91-.86,4.24-.58,1.33-1.35,2.48-2.33,3.46-1.04,1.04-2.21,1.85-3.54,2.42-1.32.58-2.73.87-4.23.87h-10.01c-2.93,0-5.49-1.1-7.68-3.29-1.04-.98-1.83-2.13-2.37-3.46-.55-1.33-.82-2.74-.82-4.24v-13.49c0-.58-.15-1.15-.43-1.73-.17-.35-.38-.74-.61-1.17-.23-.43-.46-.82-.69-1.17-.29-.58-.29-1.15,0-1.73.23-.35.46-.74.69-1.17.23-.43.43-.82.61-1.17.29-.69.43-1.27.43-1.73v-8.39c0-3.06,1.06-5.65,3.19-7.78,2.13-2.13,4.69-3.2,7.68-3.2h10.01c3.05,0,5.64,1.07,7.76,3.2.98,1.04,1.75,2.22,2.33,3.55.58,1.33.86,2.74.86,4.24v8.39c0,.64.14,1.21.43,1.73ZM210.48,43c0-.69-.14-1.27-.43-1.74-.17-.35-.38-.74-.6-1.17-.23-.43-.43-.83-.61-1.17-.29-.58-.29-1.16,0-1.74.17-.35.37-.74.61-1.17.23-.44.43-.83.6-1.17.29-.52.43-1.1.43-1.74v-8.43c0-.87-.26-1.56-.78-2.09-.64-.52-1.33-.78-2.08-.78h-10.03c-.81,0-1.47.26-1.99.78-.58.58-.87,1.27-.87,2.09v8.43c0,.46.14,1.04.43,1.74.17.35.37.74.61,1.17.23.44.46.83.69,1.17.29.58.29,1.16,0,1.74-.23.35-.46.74-.69,1.17-.23.43-.43.83-.61,1.17-.29.58-.43,1.16-.43,1.74v13.56c0,.75.29,1.42.87,2,.52.58,1.18.87,1.99.87h10.03c.81,0,1.5-.29,2.08-.87.52-.52.78-1.19.78-2v-13.56Z"/>
    <path class="cls-1" d="M256.94,66.09c.23.23.29.52.17.87-.23.35-.49.52-.78.52h-10.65c-.23,0-.46-.12-.7-.35-.17-.17-.26-.4-.26-.69.06-.58-.03-1.46-.26-2.64-.23-1.18-.76-2.81-1.57-4.89-.52-1.21-1.06-2.45-1.61-3.72-.55-1.27-1.07-2.46-1.57-3.59-.49-1.13-.94-2.15-1.35-3.07-.41-.92-.73-1.67-.96-2.25-.29-.75-.84-1.12-1.65-1.12h-.61c-.23,0-.52.12-.87.35-.23.23-.35.52-.35.87v11.68c.06,2.19.23,3.92.52,5.19.29,1.27.58,2.22.87,2.85.12.35.09.64-.09.87-.17.35-.43.52-.78.52h-9.08c-.35,0-.61-.17-.78-.52-.17-.23-.2-.52-.09-.87.29-.64.58-1.56.87-2.77.29-1.21.46-2.85.52-4.93v-15.4c0-.69-.14-1.27-.43-1.73-.17-.35-.38-.74-.61-1.17s-.43-.82-.6-1.17c-.29-.58-.29-1.15,0-1.73.17-.35.37-.74.6-1.17s.43-.82.61-1.17c.29-.52.43-1.09.43-1.73v-10.38c-.06-2.02-.23-3.63-.52-4.84-.29-1.21-.58-2.13-.87-2.77-.12-.4-.09-.72.09-.95.17-.29.43-.43.78-.43h18.77c1.44,0,2.84.27,4.19.82,1.35.55,2.52,1.34,3.5,2.38,2.13,2.13,3.2,4.73,3.2,7.78v9.52c0,1.44-.27,2.84-.82,4.2-.55,1.36-1.34,2.52-2.38,3.5-.35.4-.71.74-1.08.99-.38.26-.79.53-1.25.82-.98.58-1.63,1.38-1.95,2.42-.32,1.04-.25,2.05.22,3.03.69,1.5,1.48,3.17,2.38,5.02.89,1.85,1.74,3.66,2.55,5.45.87,1.67,1.66,3.01,2.38,4.02.72,1.01,1.34,1.8,1.86,2.38ZM246.99,24.65c0-.81-.29-1.5-.87-2.08-.52-.52-1.19-.78-2-.78h-7.31c-.81,0-1.48.26-2,.78-.58.52-.87,1.21-.87,2.08v9.52c0,.81.29,1.47.87,1.99.58.58,1.25.87,2,.87h7.31c.75,0,1.42-.29,2-.87.58-.58.87-1.24.87-1.99v-9.52Z"/>
    <path class="cls-1" d="M291.45,14.62l.69,3.81c.17.98.33,1.86.48,2.64.14.78.22,1.23.22,1.34,0,.35-.14.61-.43.78-.29.17-.58.17-.87,0-.64-.29-1.57-.56-2.81-.82-1.24-.26-2.93-.45-5.06-.56-1.1,0-2.02.38-2.77,1.12-.81.81-1.21,1.76-1.21,2.85v7.27c0,.75.14,1.33.43,1.73l1.21,2.42c.29.58.29,1.12,0,1.64l-1.21,2.42c-.29.46-.43,1.04-.43,1.73v15.05c.06,2.19.23,3.92.52,5.19.29,1.27.58,2.22.87,2.85.12.35.09.64-.09.87-.17.29-.43.43-.78.43h-9.08c-.35,0-.61-.14-.78-.43-.17-.23-.2-.52-.09-.87.35-.75.66-1.85.95-3.29.29-1.44.43-3.46.43-6.06v-13.75c0-.69-.12-1.27-.35-1.73-.23-.35-.46-.75-.69-1.21-.23-.46-.43-.87-.61-1.21-.29-.52-.29-1.07,0-1.64l.61-1.21c.23-.46.46-.87.69-1.21.23-.46.35-1.04.35-1.73v-9.77c0-.35-.14-.66-.43-.95-.29-.35-.66-.52-1.12-.52h-1.38c-2.48.06-4.41.23-5.8.52-1.39.29-2.42.58-3.11.87-.29.17-.58.17-.87,0-.29-.17-.43-.43-.43-.78,0-.12.07-.56.22-1.34.14-.78.3-1.66.48-2.64l.69-3.81c.17-.58.55-.86,1.12-.86h29.32c.58,0,.95.29,1.12.86Z"/>
    <path class="cls-1" d="M328.71,1.08c1.64.72,3.06,1.69,4.27,2.9,1.21,1.21,2.17,2.64,2.89,4.28.72,1.64,1.08,3.39,1.08,5.23v8.48c0,.4-.14.75-.43,1.04-.23.29-.57.43-1.03.43h-8.66c-.35,0-.6-.14-.78-.43s-.17-.61,0-.95c.35-.69.7-1.76,1.08-3.2.37-1.44.62-3.46.74-6.06-.17-1.09-.66-1.99-1.47-2.68-.81-.69-1.76-1.04-2.85-1.04h-13.06c-1.21,0-2.25.43-3.11,1.3s-1.3,1.9-1.3,3.11v11.42c.12.58.29,1.07.52,1.47.23.46.49.97.78,1.51.29.55.55,1.05.78,1.51.35.75.35,1.44,0,2.08-.23.46-.49.97-.78,1.51-.29.55-.55,1.05-.78,1.51-.29.58-.46,1.07-.52,1.47v17.91c0,1.21.43,2.24,1.3,3.07s1.9,1.25,3.11,1.25h13.06c1.1,0,2.05-.35,2.85-1.04.81-.69,1.3-1.56,1.47-2.59-.12-2.6-.36-4.63-.74-6.1-.38-1.47-.74-2.55-1.08-3.24-.17-.35-.17-.66,0-.95.17-.29.43-.43.78-.43h8.66c.4,0,.74.14,1.03.43.29.29.43.64.43,1.04v8.56c0,1.85-.36,3.59-1.08,5.23-.72,1.64-1.68,3.07-2.89,4.28-1.21,1.21-2.63,2.16-4.27,2.85-1.64.69-3.38,1.04-5.22,1.04h-13.03c-1.84,0-3.58-.35-5.22-1.04-1.64-.69-3.06-1.64-4.27-2.85-1.21-1.21-2.17-2.64-2.89-4.28-.72-1.64-1.08-3.39-1.08-5.23v-17.21c0-.75-.17-1.47-.52-2.16-.23-.46-.49-.97-.78-1.51-.29-.55-.55-1.05-.78-1.51-.35-.63-.35-1.33,0-2.08.23-.46.49-.97.78-1.51.29-.55.55-1.05.78-1.51.35-.58.52-1.3.52-2.16v-10.73c0-1.84.36-3.59,1.08-5.23.72-1.64,1.68-3.07,2.89-4.28,1.21-1.21,2.63-2.18,4.27-2.9,1.64-.72,3.38-1.08,5.22-1.08h13.03c1.84,0,3.58.36,5.22,1.08Z"/>
    <path class="cls-1" d="M375.19,34.77c.17.35.37.75.61,1.21.23.46.46.87.69,1.21.29.52.29,1.1,0,1.73-.23.35-.46.73-.69,1.17-.23.43-.43.82-.61,1.17-.29.58-.43,1.15-.43,1.73v13.49c0,1.44-.27,2.84-.82,4.2-.55,1.36-1.34,2.52-2.38,3.5-2.13,2.13-4.7,3.2-7.7,3.2h-10.04c-3.06,0-5.65-1.07-7.78-3.2-.98-.98-1.76-2.15-2.33-3.5-.58-1.35-.87-2.75-.87-4.2v-13.49c0-.69-.15-1.27-.43-1.73-.17-.35-.38-.74-.61-1.17-.23-.43-.43-.82-.61-1.17-.29-.64-.29-1.21,0-1.73l1.21-2.42c.29-.4.43-.98.43-1.73v-9.95c-.06-2.19-.23-3.92-.52-5.19-.29-1.27-.58-2.22-.87-2.85-.12-.35-.09-.63.09-.86.17-.29.43-.43.78-.43h9.08c.35,0,.61.14.78.43.17.23.2.52.09.86-.35.75-.66,1.85-.95,3.29-.29,1.44-.43,3.46-.43,6.06v8.65c0,.69.12,1.27.35,1.73.23.35.46.75.69,1.21.23.46.43.87.61,1.21.29.52.29,1.1,0,1.73-.17.35-.38.73-.61,1.17-.23.43-.46.82-.69,1.17-.23.58-.35,1.04-.35,1.38v13.84c0,.81.26,1.47.78,1.99.69.58,1.39.87,2.09.87h10.09c.75,0,1.42-.29,2-.87.58-.58.87-1.24.87-1.99v-13.84c-.06-.23-.12-.46-.17-.69-.06-.23-.14-.46-.26-.69-.17-.35-.38-.74-.61-1.17-.23-.43-.46-.82-.69-1.17-.29-.64-.29-1.21,0-1.73.23-.35.46-.75.69-1.21s.43-.87.61-1.21c.29-.58.43-1.15.43-1.73v-8.65c0-2.6-.16-4.61-.48-6.06-.32-1.44-.62-2.54-.91-3.29-.17-.29-.17-.58,0-.86.17-.29.43-.43.78-.43h9.17c.4,0,.69.14.87.43.17.29.17.58,0,.86-.29.64-.58,1.59-.87,2.85-.29,1.27-.46,3-.52,5.19v9.95c0,.58.14,1.15.43,1.73Z"/>
    <path class="cls-1" d="M411.86,14.62l.69,3.81c.17.98.33,1.86.48,2.64.14.78.22,1.23.22,1.34,0,.35-.15.61-.43.78-.29.17-.58.17-.87,0-.64-.29-1.57-.56-2.81-.82s-2.93-.45-5.06-.56c-1.1,0-2.02.38-2.77,1.12-.81.81-1.21,1.76-1.21,2.85v7.27c0,.75.14,1.33.43,1.73l1.21,2.42c.29.58.29,1.12,0,1.64l-1.21,2.42c-.29.46-.43,1.04-.43,1.73v15.05c.06,2.19.23,3.92.52,5.19.29,1.27.58,2.22.86,2.85.12.35.09.64-.09.87-.17.29-.43.43-.78.43h-9.08c-.35,0-.6-.14-.78-.43-.17-.23-.2-.52-.09-.87.35-.75.66-1.85.95-3.29.29-1.44.43-3.46.43-6.06v-13.75c0-.69-.12-1.27-.35-1.73-.23-.35-.46-.75-.69-1.21-.23-.46-.43-.87-.61-1.21-.29-.52-.29-1.07,0-1.64l.61-1.21c.23-.46.46-.87.69-1.21.23-.46.35-1.04.35-1.73v-9.77c0-.35-.15-.66-.43-.95-.29-.35-.66-.52-1.12-.52h-1.39c-2.48.06-4.41.23-5.8.52-1.38.29-2.42.58-3.11.87-.29.17-.58.17-.87,0-.29-.17-.43-.43-.43-.78,0-.12.07-.56.22-1.34.14-.78.3-1.66.47-2.64l.69-3.81c.17-.58.55-.86,1.13-.86h29.32c.58,0,.95.29,1.12.86Z"/>
  </g>
  <g>
    <path class="cls-1" d="M35.05,56.48s0,0,0,0c-1.31.24-3.25.75-5.34,1.93-2.26,1.27-3.78,2.8-4.67,3.85-.67.76-1.58,1.65-2.75,2.5-1.57,1.15-3.08,1.84-4.24,2.26-1.25.39-3.07.82-5.3.82-2,0-3.67-.34-4.86-.67,0,0,0,0,0,0-.88-.35-2.08-.95-3.23-2.02-2.61-2.45-3.1-5.61-3.22-6.74,0-.03-.05-.05-.07-.02-.4.58-.99,1.6-1.24,3-.33,1.82.1,3.28.34,3.95.38.98,1.1,2.48,2.46,3.95,1.09,1.18,2.21,1.94,3.03,2.41,0,0,0,0,0,0,1.6.74,3.81,1.56,6.55,2.02,2.42.41,4.54.41,6.16.29,0,0,0,0,0,0,2.11.03,5.17-.18,8.62-1.35,2.24-.76,4.06-1.73,5.44-2.6,1.54-.9,3.31-2.14,5.09-3.83.99-.94,1.64-1.44,2.18-2.33.73-1.21.96-2.4,1.04-3.18-.06-.43-.31-1.92-1.61-3.08-1.81-1.62-4.12-1.21-4.4-1.16Z"/>
    <path class="cls-1" d="M49.87,56.48s0,0,0,0c1.31.24,3.25.75,5.34,1.93,2.26,1.27,3.78,2.8,4.67,3.85.67.76,1.58,1.65,2.75,2.5,1.57,1.15,3.08,1.84,4.24,2.26,1.25.39,3.07.82,5.3.82,2,0,3.67-.34,4.86-.67,0,0,0,0,0,0,.88-.35,2.08-.95,3.23-2.02,2.61-2.45,3.1-5.61,3.22-6.74,0-.03.05-.05.07-.02.4.58.99,1.6,1.24,3,.33,1.82-.1,3.28-.34,3.95-.38.98-1.1,2.48-2.46,3.95-1.09,1.18-2.21,1.94-3.03,2.41,0,0,0,0,0,0-1.6.74-3.81,1.56-6.55,2.02-2.42.41-4.54.41-6.16.29,0,0,0,0,0,0-2.11.03-5.17-.18-8.62-1.35-2.24-.76-4.06-1.73-5.44-2.6-1.54-.9-3.31-2.14-5.09-3.83-.99-.94-1.64-1.44-2.18-2.33-.73-1.21-.96-2.4-1.04-3.18.06-.43.31-1.92,1.61-3.08,1.81-1.62,4.12-1.21,4.4-1.16Z"/>
    <g>
      <path class="cls-1" d="M26.44,36.27c-4.67,0-8.45,3.78-8.45,8.45s3.78,8.45,8.45,8.45,8.45-3.78,8.45-8.45-3.78-8.45-8.45-8.45ZM26.44,50.69c-3.3,0-5.97-2.67-5.97-5.97s2.67-5.97,5.97-5.97,5.97,2.67,5.97,5.97-2.67,5.97-5.97,5.97Z"/>
      <path class="cls-1" d="M57.94,36.27c-4.67,0-8.45,3.78-8.45,8.45s3.78,8.45,8.45,8.45,8.45-3.78,8.45-8.45-3.78-8.45-8.45-8.45ZM57.94,50.69c-3.3,0-5.97-2.67-5.97-5.97s2.67-5.97,5.97-5.97,5.97,2.67,5.97,5.97-2.67,5.97-5.97,5.97Z"/>
      <path class="cls-1" d="M57.85,38.02c-3.69,0-6.69,3-6.69,6.69s3,6.69,6.69,6.69,6.69-3,6.69-6.69-3-6.69-6.69-6.69ZM57.85,49.44c-2.61,0-4.73-2.12-4.73-4.73s2.12-4.73,4.73-4.73,4.73,2.12,4.73,4.73-2.12,4.73-4.73,4.73Z"/>
      <path class="cls-1" d="M26.44,38.02c-3.69,0-6.69,3-6.69,6.69s3,6.69,6.69,6.69,6.69-3,6.69-6.69-3-6.69-6.69-6.69ZM26.44,49.44c-2.61,0-4.73-2.12-4.73-4.73s2.12-4.73,4.73-4.73,4.73,2.12,4.73,4.73-2.12,4.73-4.73,4.73Z"/>
    </g>
    <path class="cls-1" d="M54.68,36.61L26.49.54c-.17-.21-.37-.38-.59-.51h-2.07c-.1.05-.2.08-.29.15h-.01c-.11.09-.17.21-.25.31v2.79l28.07,35.93c.71.91,2.03,1.08,2.95.36h.01c.91-.72,1.08-2.04.36-2.96Z"/>
    <path class="cls-1" d="M61.54.31s-.06-.09-.11-.13c-.09-.07-.2-.1-.3-.15h-2.06c-.22.13-.43.3-.6.51l-28.45,36.41c-.72.92-.55,2.24.36,2.96.92.72,2.24.55,2.96-.36L61.54,3.47V.31Z"/>
    <path class="cls-1" d="M13.29,79.49c5.14.67,9.38.27,12.26-.21,2.92-.49,6.49-1.12,10.51-3.39,2.95-1.67,5.06-3.6,6.4-5.03v35.53c-.85-.53-1.77-1.21-2.67-2.09-3.36-3.26-4.44-7.23-4.83-9.31-.41-1.92-.75-4.48-.62-7.5.15-3.41.87-6.22,1.54-8.22-1.77,1.58-2.63,3.17-3.05,4.14-1.2,2.76-1.01,5.41-.86,7.67.07,1,.14,1.05.52,3.85.34,2.46.57,4.47.71,5.8-.86-.23-1.9-.63-2.91-1.37-3.61-2.63-3.84-7.25-3.87-8.04-.14-3.02-.27-6.05-.41-9.07-.69,1.06-1.48,2.55-2.02,4.45-.95,3.38-.57,6.29-.24,7.87-.71-.34-1.76-.97-2.67-2.05-1.69-2.02-1.85-4.36-1.99-6.33-.09-1.28-.07-3.24.55-5.58-.3,0-1.42,0-2.36.82-.95.83-1.33,2.18-1.03,3.49-.48-.25-1.15-.7-1.75-1.44-1.29-1.61-1.26-3.45-1.23-4.01Z"/>
    <path class="cls-1" d="M71.62,79.49c-5.14.67-9.38.27-12.26-.21-2.92-.49-6.49-1.12-10.51-3.39-2.95-1.67-5.06-3.6-6.4-5.03,0,11.84,0,23.69,0,35.53.85-.53,1.77-1.21,2.67-2.09,3.36-3.26,4.44-7.23,4.83-9.31.41-1.92.75-4.48.62-7.5-.15-3.41-.87-6.22-1.54-8.22,1.77,1.58,2.63,3.17,3.05,4.14,1.2,2.76,1.01,5.41.86,7.67-.07,1-.14,1.05-.52,3.85-.34,2.46-.57,4.47-.71,5.8.86-.23,1.9-.63,2.91-1.37,3.61-2.63,3.84-7.25,3.87-8.04.14-3.02.27-6.05.41-9.07.69,1.06,1.48,2.55,2.02,4.45.95,3.38.57,6.29.24,7.87.71-.34,1.76-.97,2.67-2.05,1.69-2.02,1.85-4.36,1.99-6.33.09-1.28.07-3.24-.55-5.58.3,0,1.42,0,2.36.82.95.83,1.33,2.18,1.03,3.49.48-.25,1.15-.7,1.75-1.44,1.29-1.61,1.26-3.45,1.23-4.01Z"/>
  </g>
  <g>
    <path class="cls-1" d="M152.81,105.97v-2.27h2.96v-16.62h-2.96v-2.27h10.61c1.23,0,2.32.22,3.28.67.96.44,1.7,1.06,2.24,1.86.53.8.8,1.73.8,2.8v.24c0,.99-.19,1.8-.57,2.43-.38.63-.84,1.13-1.36,1.48-.52.35-1.04.61-1.54.77v.42c.5.12,1.03.36,1.57.71.54.35,1,.85,1.38,1.5.37.64.56,1.46.56,2.45v.3c0,1.15-.28,2.14-.83,2.98-.55.84-1.31,1.47-2.27,1.9-.96.43-2.05.65-3.28.65h-10.58ZM158.32,94.16h4.89c1.21,0,2.18-.31,2.9-.92.73-.61,1.09-1.43,1.09-2.43v-.3c0-1.03-.36-1.85-1.07-2.46-.72-.62-1.69-.92-2.92-.92h-4.89v7.04ZM158.32,103.68h4.8c1.33,0,2.35-.31,3.05-.94.7-.62,1.06-1.47,1.06-2.54v-.27c0-1.07-.35-1.91-1.06-2.54-.71-.62-1.72-.94-3.05-.94h-4.8v7.22Z"/>
    <path class="cls-1" d="M174.24,105.97l6.53-21.16h4.47l6.53,21.16h-2.63l-1.63-5.35h-9.01l-1.63,5.35h-2.63ZM179.14,98.33h7.71l-3.63-11.97h-.42l-3.66,11.97Z"/>
    <path class="cls-1" d="M197.21,105.97v-21.16h8.55c1.31,0,2.46.23,3.46.68,1,.45,1.78,1.1,2.34,1.93.57.84.85,1.84.85,3.01v.33c0,1.39-.33,2.49-1,3.29s-1.45,1.35-2.36,1.63v.42c.72.02,1.32.26,1.8.71.47.45.71,1.13.71,2.04v7.1h-2.51v-6.8c0-.61-.17-1.07-.5-1.39-.33-.32-.83-.48-1.5-.48h-7.31v8.67h-2.54ZM199.75,95h5.77c1.39,0,2.46-.34,3.22-1.01.76-.68,1.13-1.62,1.13-2.83v-.21c0-1.21-.37-2.15-1.12-2.83-.74-.68-1.82-1.01-3.23-1.01h-5.77v7.89Z"/>
    <path class="cls-1" d="M217.55,105.97v-2.27h2.96v-16.62h-2.96v-2.27h10.61c1.23,0,2.32.22,3.28.67.96.44,1.7,1.06,2.24,1.86.53.8.8,1.73.8,2.8v.24c0,.99-.19,1.8-.57,2.43-.38.63-.84,1.13-1.36,1.48-.52.35-1.04.61-1.54.77v.42c.5.12,1.03.36,1.57.71.54.35,1,.85,1.38,1.5.37.64.56,1.46.56,2.45v.3c0,1.15-.28,2.14-.83,2.98-.55.84-1.31,1.47-2.27,1.9-.96.43-2.05.65-3.28.65h-10.58ZM223.05,94.16h4.89c1.21,0,2.18-.31,2.9-.92.73-.61,1.09-1.43,1.09-2.43v-.3c0-1.03-.36-1.85-1.07-2.46-.72-.62-1.69-.92-2.92-.92h-4.89v7.04ZM223.05,103.68h4.8c1.33,0,2.35-.31,3.05-.94.7-.62,1.06-1.47,1.06-2.54v-.27c0-1.07-.35-1.91-1.06-2.54-.71-.62-1.72-.94-3.05-.94h-4.8v7.22Z"/>
    <path class="cls-1" d="M240.79,105.97v-21.16h13.02v2.3h-10.49v7.07h9.64v2.3h-9.64v7.19h10.64v2.3h-13.18Z"/>
    <path class="cls-1" d="M260.07,105.97v-21.16h8.55c1.31,0,2.46.23,3.46.68,1,.45,1.78,1.1,2.34,1.93.56.84.85,1.84.85,3.01v.33c0,1.39-.33,2.49-1,3.29s-1.45,1.35-2.36,1.63v.42c.73.02,1.32.26,1.8.71.47.45.71,1.13.71,2.04v7.1h-2.51v-6.8c0-.61-.17-1.07-.5-1.39-.33-.32-.83-.48-1.5-.48h-7.31v8.67h-2.54ZM262.61,95h5.77c1.39,0,2.46-.34,3.22-1.01.76-.68,1.13-1.62,1.13-2.83v-.21c0-1.21-.37-2.15-1.12-2.83-.75-.68-1.82-1.01-3.23-1.01h-5.77v7.89Z"/>
    <path class="cls-1" d="M288.45,106.4c-1.53,0-2.9-.27-4.11-.82-1.21-.54-2.16-1.36-2.86-2.46-.69-1.1-1.04-2.47-1.04-4.13v-.63h2.51v.63c0,1.75.51,3.06,1.54,3.91,1.03.86,2.35,1.28,3.96,1.28s2.91-.37,3.78-1.12c.86-.74,1.3-1.68,1.3-2.81,0-.79-.2-1.41-.59-1.87-.39-.46-.94-.84-1.65-1.13s-1.53-.55-2.48-.77l-1.57-.39c-1.23-.32-2.32-.72-3.26-1.18-.95-.46-1.69-1.07-2.22-1.83-.53-.76-.8-1.73-.8-2.92s.3-2.22.89-3.08,1.43-1.53,2.51-1.99,2.32-.7,3.73-.7,2.72.25,3.85.74c1.14.49,2.04,1.22,2.69,2.18s.98,2.16.98,3.61v1.27h-2.51v-1.27c0-1.03-.22-1.85-.65-2.48-.43-.62-1.03-1.09-1.78-1.39-.75-.3-1.62-.45-2.58-.45-1.39,0-2.51.31-3.35.92-.85.62-1.27,1.49-1.27,2.61,0,.75.18,1.35.54,1.81.36.46.88.84,1.54,1.13s1.46.55,2.39.77l1.57.39c1.23.26,2.33.62,3.31,1.07.98.45,1.76,1.07,2.34,1.84.58.78.88,1.79.88,3.04s-.31,2.34-.94,3.26c-.63.93-1.51,1.65-2.64,2.16-1.14.51-2.47.77-4,.77Z"/>
    <path class="cls-1" d="M302.2,105.97v-21.16h2.54v9.4h9.91v-9.4h2.54v21.16h-2.54v-9.46h-9.91v9.46h-2.54Z"/>
    <path class="cls-1" d="M331.96,106.4c-2.52,0-4.53-.73-6.03-2.19-1.5-1.46-2.25-3.59-2.25-6.39v-4.84c0-2.8.75-4.93,2.25-6.39,1.5-1.46,3.51-2.19,6.03-2.19s4.56.73,6.06,2.19c1.5,1.46,2.25,3.59,2.25,6.39v4.84c0,2.8-.75,4.93-2.25,6.39-1.5,1.46-3.52,2.19-6.06,2.19ZM331.96,104.13c1.83,0,3.26-.55,4.26-1.65,1.01-1.1,1.51-2.62,1.51-4.58v-5.02c0-1.95-.5-3.48-1.51-4.58-1.01-1.1-2.43-1.65-4.26-1.65s-3.22.55-4.23,1.65c-1.01,1.1-1.51,2.62-1.51,4.58v5.02c0,1.95.5,3.48,1.51,4.58,1.01,1.1,2.42,1.65,4.23,1.65Z"/>
    <path class="cls-1" d="M346.77,105.97v-21.16h8.1c1.27,0,2.4.25,3.4.74,1,.49,1.79,1.19,2.37,2.1.59.91.88,2,.88,3.29v.39c0,1.27-.3,2.36-.89,3.28-.59.92-1.4,1.62-2.4,2.1-1.01.48-2.12.73-3.35.73h-5.56v8.52h-2.54ZM349.31,95.15h5.29c1.35,0,2.42-.34,3.2-1.01s1.18-1.63,1.18-2.86v-.3c0-1.23-.39-2.18-1.16-2.85-.78-.68-1.85-1.01-3.22-1.01h-5.29v8.04Z"/>
  </g>
</svg>