<svg width="25" height="17" viewBox="0 0 25 17" fill="none" xmlns="http://www.w3.org/2000/svg">
<path d="M12.6811 16.8643C9.1959 16.8643 5.75316 16.8643 2.26792 16.8643C1.16285 16.8643 0.695312 16.4354 0.695312 15.3202C0.695312 10.9451 0.695312 6.57008 0.695312 2.19502C0.695312 1.03691 1.16285 0.650879 2.26792 0.650879C9.1534 0.650879 16.0814 0.650879 22.9669 0.650879C24.1569 0.650879 24.582 1.07981 24.582 2.2808C24.582 6.61297 24.582 10.9451 24.582 15.2773C24.582 16.4783 24.1144 16.9072 22.9244 16.8643C19.4816 16.8215 16.0814 16.8643 12.6386 16.8643H12.6811ZM3.50051 1.98056C3.50051 1.98056 3.62802 2.3237 3.71302 2.36659C6.47571 4.72569 9.23841 7.04191 12.0011 9.40101C12.5536 9.87283 12.9362 9.78704 13.4462 9.35811C16.0389 7.12769 18.6741 4.89726 21.3092 2.66684C21.5218 2.49527 21.6493 2.23791 21.9043 1.98056H3.50051ZM2.77796 15.5347H22.5418C19.9917 13.39 17.6965 11.4599 15.4438 9.52968C14.4663 10.2589 13.6162 11.4599 12.7661 11.417C11.8311 11.417 10.9385 10.2589 10.046 9.61547C10.046 9.61547 9.96096 9.61547 9.87595 9.52968C7.62329 11.4599 5.32813 13.39 2.77796 15.5347ZM16.4639 8.58604C18.7591 10.5162 20.9267 12.3606 23.2644 14.3337V2.83841C20.9267 4.81148 18.7591 6.65587 16.4639 8.58604ZM2.05541 14.3766C4.43557 12.3606 6.60322 10.5162 8.89838 8.58604C6.60322 6.65587 4.43557 4.81148 2.05541 2.79552V14.3766Z" fill="#DAA73F"/>
</svg>
