<svg width="36" height="36" viewBox="0 0 36 36" fill="none" xmlns="http://www.w3.org/2000/svg">
<path d="M17.6387 35.601C27.3803 35.601 35.2775 27.6314 35.2775 17.8005C35.2775 7.96955 27.3803 0 17.6387 0C7.89713 0 0 7.96955 0 17.8005C0 27.6314 7.89713 35.601 17.6387 35.601Z" fill="#1D1D1B"/>
<path d="M17.6811 25.8643C14.1959 25.8643 10.7532 25.8643 7.26792 25.8643C6.16285 25.8643 5.69531 25.4354 5.69531 24.3202C5.69531 19.9451 5.69531 15.5701 5.69531 11.195C5.69531 10.0369 6.16285 9.65088 7.26792 9.65088C14.1534 9.65088 21.0814 9.65088 27.9669 9.65088C29.1569 9.65088 29.582 10.0798 29.582 11.2808C29.582 15.613 29.582 19.9451 29.582 24.2773C29.582 25.4783 29.1144 25.9072 27.9244 25.8643C24.4816 25.8215 21.0814 25.8643 17.6386 25.8643H17.6811ZM8.50051 10.9806C8.50051 10.9806 8.62802 11.3237 8.71302 11.3666C11.4757 13.7257 14.2384 16.0419 17.0011 18.401C17.5536 18.8728 17.9362 18.787 18.4462 18.3581C21.0389 16.1277 23.6741 13.8973 26.3092 11.6668C26.5218 11.4953 26.6493 11.2379 26.9043 10.9806H8.50051ZM7.77796 24.5347H27.5418C24.9917 22.39 22.6965 20.4599 20.4438 18.5297C19.4663 19.2589 18.6162 20.4599 17.7661 20.417C16.8311 20.417 15.9385 19.2589 15.046 18.6155C15.046 18.6155 14.961 18.6155 14.8759 18.5297C12.6233 20.4599 10.3281 22.39 7.77796 24.5347ZM21.4639 17.586C23.7591 19.5162 25.9267 21.3606 28.2644 23.3337V11.8384C25.9267 13.8115 23.7591 15.6559 21.4639 17.586ZM7.05541 23.3766C9.43557 21.3606 11.6032 19.5162 13.8984 17.586C11.6032 15.6559 9.43557 13.8115 7.05541 11.7955V23.3766Z" fill="#DAA73F"/>
</svg>
