<svg width="108" height="119" viewBox="0 0 108 119" fill="none" xmlns="http://www.w3.org/2000/svg">
<g clip-path="url(#clip0_11_80)">
<path d="M18.7324 81.0168C8.41372 81.0168 0.0494385 89.4184 0.0494385 99.7831C0.0494385 110.148 8.41372 118.549 18.7324 118.549C29.0511 118.549 37.4154 110.148 37.4154 99.7831C37.4154 89.4184 29.0511 81.0168 18.7324 81.0168ZM18.7324 113.051C11.4342 113.051 5.52313 107.114 5.52313 99.7831C5.52313 92.4523 11.4342 86.5149 18.7324 86.5149C26.0307 86.5149 31.9417 92.4523 31.9417 99.7831C31.9417 107.114 26.0307 113.051 18.7324 113.051Z" fill="#DBA740"/>
<path d="M88.3733 81.0168C78.0546 81.0168 69.6903 89.4184 69.6903 99.7831C69.6903 110.148 78.0546 118.549 88.3733 118.549C98.692 118.549 107.056 110.148 107.056 99.7831C107.056 89.4184 98.692 81.0168 88.3733 81.0168ZM88.3733 113.051C81.075 113.051 75.164 107.114 75.164 99.7831C75.164 92.4523 81.075 86.5149 88.3733 86.5149C95.6715 86.5149 101.583 92.4523 101.583 99.7831C101.583 107.114 95.6715 113.051 88.3733 113.051Z" fill="#DBA740"/>
<path d="M88.1683 84.9224C79.9954 84.9224 73.3737 91.5737 73.3737 99.7831C73.3737 107.993 79.9954 114.644 88.1683 114.644C96.3413 114.644 102.963 107.993 102.963 99.7831C102.963 91.5737 96.3413 84.9224 88.1683 84.9224ZM88.1683 110.292C82.394 110.292 77.7061 105.59 77.7061 99.7831C77.7061 93.9761 82.3871 89.2742 88.1683 89.2742C93.9495 89.2742 98.6305 93.9761 98.6305 99.7831C98.6305 105.59 93.9495 110.292 88.1683 110.292Z" fill="#DBA740"/>
<path d="M18.7324 84.9224C10.5595 84.9224 3.93774 91.5737 3.93774 99.7831C3.93774 107.993 10.5595 114.644 18.7324 114.644C26.9054 114.644 33.5271 107.993 33.5271 99.7831C33.5271 91.5737 26.9054 84.9224 18.7324 84.9224ZM18.7324 110.292C12.9581 110.292 8.27023 105.59 8.27023 99.7831C8.27023 93.9761 12.9512 89.2742 18.7324 89.2742C24.5136 89.2742 29.1946 93.9761 29.1946 99.7831C29.1946 105.59 24.5136 110.292 18.7324 110.292Z" fill="#DBA740"/>
<path d="M81.1639 81.7924L18.8418 1.67514C18.4728 1.20152 18.0217 0.837729 17.5297 0.549438H12.9649C12.7531 0.666127 12.5207 0.72104 12.3225 0.872049L12.2884 0.899505C12.0492 1.08483 11.9194 1.3388 11.728 1.55845V7.7567L73.8041 87.5651C75.3827 89.5968 78.3006 89.9538 80.3234 88.3682L80.3575 88.3476C82.3803 86.762 82.7356 83.831 81.1571 81.7993L81.1639 81.7924Z" fill="#DBA740"/>
<path d="M96.3412 1.16037C96.2524 1.078 96.2045 0.96131 96.102 0.878941C95.897 0.721068 95.6578 0.666156 95.4392 0.542603H90.888C90.396 0.830893 89.9382 1.20155 89.5623 1.68204L26.6525 82.5681C25.0671 84.6067 25.4293 87.5514 27.4589 89.1438C29.4884 90.7363 32.42 90.3725 34.0054 88.3339L96.3412 8.1823V1.16037Z" fill="#DBA740"/>
</g>
<defs>
<clipPath id="clip0_11_80">
<rect width="107" height="118" fill="white" transform="translate(0.0494385 0.549438)"/>
</clipPath>
</defs>
</svg>
