<svg width="36" height="36" viewBox="0 0 36 36" fill="none" xmlns="http://www.w3.org/2000/svg">
<path d="M18.3614 35.601C28.103 35.601 36.0001 27.6314 36.0001 17.8005C36.0001 7.96956 28.103 0 18.3614 0C8.61978 0 0.722656 7.96956 0.722656 17.8005C0.722656 27.6314 8.61978 35.601 18.3614 35.601Z" fill="#1D1D1B"/>
<path d="M23.2491 28.7382C20.4864 28.6096 18.4463 27.7946 16.7462 26.2505C12.9209 22.7761 10.1157 18.6584 9.56315 13.3826C9.39314 11.9672 9.86067 10.2943 10.4557 8.96467C10.8382 8.10681 11.9858 7.42053 12.9634 7.12028C15.1735 6.434 15.9386 7.07739 16.2361 9.30781C16.3211 10.0799 16.3211 10.852 16.4911 11.624C16.7462 12.9537 16.3636 13.9402 15.0885 14.5407C14.281 14.9268 14.026 15.4844 14.536 16.2993C15.6836 18.1437 16.7887 19.9881 17.9787 21.7896C18.6163 22.7761 19.5088 23.0335 20.4864 22.0899C21.294 21.3178 22.144 21.3178 23.0791 21.8325C23.8016 22.2185 24.5667 22.5188 25.2892 22.8619C26.1818 23.2909 27.1594 23.634 27.1169 24.9208C27.0744 26.2933 26.6068 27.4515 25.3317 28.052C24.5667 28.438 23.6316 28.5667 23.2066 28.6953L23.2491 28.7382Z" fill="#DAA740"/>
</svg>
