<svg width="19" height="23" viewBox="0 0 19 23" fill="none" xmlns="http://www.w3.org/2000/svg">
<path d="M14.2491 22.7382C11.4864 22.6096 9.44627 21.7946 7.74615 20.2505C3.92089 16.7761 1.11569 12.6584 0.563152 7.38262C0.39314 5.96716 0.860673 4.29434 1.45571 2.96467C1.83824 2.10681 2.98582 1.42053 3.96339 1.12028C6.17354 0.433996 6.93859 1.07739 7.23611 3.30781C7.32112 4.07988 7.32112 4.85195 7.49113 5.62402C7.74615 6.9537 7.36362 7.94023 6.08854 8.54073C5.28098 8.92676 5.02596 9.48437 5.536 10.2993C6.68358 12.1437 7.78865 13.9881 8.97874 15.7896C9.61628 16.7761 10.5088 17.0335 11.4864 16.0899C12.294 15.3178 13.144 15.3178 14.0791 15.8325C14.8016 16.2185 15.5667 16.5188 16.2892 16.8619C17.1818 17.2909 18.1594 17.634 18.1169 18.9208C18.0744 20.2933 17.6068 21.4515 16.3317 22.052C15.5667 22.438 14.6316 22.5667 14.2066 22.6953L14.2491 22.7382Z" fill="#DAA740"/>
</svg>
