<svg width="142" height="146" viewBox="0 0 142 146" fill="none" xmlns="http://www.w3.org/2000/svg">
<g clip-path="url(#clip0_11_88)">
<path fill-rule="evenodd" clip-rule="evenodd" d="M60.5944 16.0114C103.424 62.8697 124.807 86.2815 124.807 86.2815C133.421 97.3395 127.427 100.897 141.434 111.806C141.759 112.355 141.728 112.795 141.377 113.061C137.909 116.245 125.521 100.279 123.19 97.6884C114.024 87.4938 107.914 80.6974 104.859 77.2992C102.847 75.421 102.354 75.0293 100.319 76.3336C97.6016 78.0562 92.5111 79.9456 89.9677 77.3642L48.572 34.063C36.955 21.9594 57.2972 12.5237 60.5944 16.0114Z" fill="#DBA740"/>
<path fill-rule="evenodd" clip-rule="evenodd" d="M129.679 84.5644C104.479 86.3471 71.3787 81.6499 30.4274 70.4583C24.5059 68.8268 17.4483 66.9947 14.2017 74.3647C11.5726 81.8203 20.0626 87.7482 26.341 88.9506C79.196 99.0811 114.085 100.017 131.059 91.7439C136.235 89.2369 134.672 84.1574 129.679 84.5644Z" fill="#DBA740"/>
</g>
<defs>
<clipPath id="clip0_11_88">
<rect width="118" height="113" fill="white" transform="translate(108.319) rotate(73.4507)"/>
</clipPath>
</defs>
</svg>
