<svg width="87" height="175" viewBox="0 0 87 175" fill="none" xmlns="http://www.w3.org/2000/svg">
<g clip-path="url(#clip0_37_228)">
<path d="M23.3492 49.0987C17.0809 49.0987 11.9998 54.2251 11.9998 60.5493C11.9998 66.8736 17.0809 72 23.3492 72C29.6176 72 34.6987 66.8736 34.6987 60.5493C34.6987 54.2251 29.6176 49.0987 23.3492 49.0987ZM23.3492 68.6452C18.9157 68.6452 15.3249 65.0224 15.3249 60.5493C15.3249 56.0763 18.9157 52.4535 23.3492 52.4535C27.7827 52.4535 31.3736 56.0763 31.3736 60.5493C31.3736 65.0224 27.7827 68.6452 23.3492 68.6452Z" fill="#DBA740"/>
<path d="M65.6544 49.0987C59.386 49.0987 54.3049 54.2251 54.3049 60.5493C54.3049 66.8736 59.386 72 65.6544 72C71.9228 72 77.0039 66.8736 77.0039 60.5493C77.0039 54.2251 71.9228 49.0987 65.6544 49.0987ZM65.6544 68.6452C61.2209 68.6452 57.6301 65.0224 57.6301 60.5493C57.6301 56.0763 61.2209 52.4535 65.6544 52.4535C70.0879 52.4535 73.6787 56.0763 73.6787 60.5493C73.6787 65.0224 70.0879 68.6452 65.6544 68.6452Z" fill="#DBA740"/>
<path d="M65.5299 51.4818C60.565 51.4818 56.5425 55.5402 56.5425 60.5494C56.5425 65.5585 60.565 69.6169 65.5299 69.6169C70.4948 69.6169 74.5173 65.5585 74.5173 60.5494C74.5173 55.5402 70.4948 51.4818 65.5299 51.4818ZM65.5299 66.9615C62.0221 66.9615 59.1744 64.0926 59.1744 60.5494C59.1744 57.0061 62.018 54.1372 65.5299 54.1372C69.0418 54.1372 71.8854 57.0061 71.8854 60.5494C71.8854 64.0926 69.0418 66.9615 65.5299 66.9615Z" fill="#DBA740"/>
<path d="M23.3492 51.4818C18.3844 51.4818 14.3618 55.5402 14.3618 60.5494C14.3618 65.5585 18.3844 69.6169 23.3492 69.6169C28.3141 69.6169 32.3367 65.5585 32.3367 60.5494C32.3367 55.5402 28.3141 51.4818 23.3492 51.4818ZM23.3492 66.9615C19.8414 66.9615 16.9937 64.0926 16.9937 60.5494C16.9937 57.0061 19.8373 54.1372 23.3492 54.1372C26.8612 54.1372 29.7048 57.0061 29.7048 60.5494C29.7048 64.0926 26.8612 66.9615 23.3492 66.9615Z" fill="#DBA740"/>
<path d="M61.2749 49.572L23.4157 0.686871C23.1915 0.397883 22.9175 0.175906 22.6186 0L19.8456 0C19.7169 0.0712001 19.5758 0.104706 19.4554 0.196847L19.4346 0.2136C19.2893 0.326683 19.2105 0.481647 19.0942 0.615671V4.39765L56.804 53.0943C57.763 54.334 59.5355 54.5518 60.7643 53.5843L60.7851 53.5718C62.0138 52.6043 62.2297 50.8159 61.2708 49.5762L61.2749 49.572Z" fill="#DBA740"/>
<path d="M70.4948 0.372791C70.4409 0.322532 70.4118 0.251332 70.3495 0.201073C70.225 0.104744 70.0797 0.0712379 69.9469 -0.00415039L67.1821 -0.00415039C66.8832 0.171756 66.6051 0.39792 66.3768 0.691097L28.1605 50.0453C27.1975 51.2892 27.4175 53.086 28.6504 54.0576C29.8833 55.0293 31.6642 54.8073 32.6273 53.5634L70.4948 4.65736V0.372791Z" fill="#DBA740"/>
</g>
<g clip-path="url(#clip1_37_228)">
<path fill-rule="evenodd" clip-rule="evenodd" d="M37.1143 95.807C63.3475 124.508 76.4444 138.848 76.4444 138.848C81.7211 145.621 78.0495 147.8 86.6289 154.481C86.8278 154.818 86.809 155.087 86.5936 155.25C84.4695 157.2 76.882 147.421 75.4544 145.834C69.8404 139.59 66.0977 135.427 64.2264 133.346C62.9943 132.195 62.6922 131.956 61.446 132.754C59.7813 133.81 56.6634 134.967 55.1056 133.386L29.7506 106.864C22.6352 99.4501 35.0948 93.6707 37.1143 95.807Z" fill="#DBA740"/>
<path fill-rule="evenodd" clip-rule="evenodd" d="M79.429 137.796C63.9939 138.888 43.7198 136.011 18.637 129.156C15.0101 128.157 10.6874 127.034 8.69879 131.548C7.08847 136.115 12.2886 139.746 16.1341 140.482C48.5079 146.687 69.8778 147.261 80.2741 142.193C83.4445 140.658 82.487 137.547 79.429 137.796Z" fill="#DBA740"/>
</g>
<defs>
<clipPath id="clip0_37_228">
<rect width="65" height="72" fill="white" transform="translate(11.9998)"/>
</clipPath>
<clipPath id="clip1_37_228">
<rect width="72.2752" height="69.2127" fill="white" transform="translate(66.3457 86) rotate(73.4507)"/>
</clipPath>
</defs>
</svg>
