<svg width="194" height="150" viewBox="0 0 194 150" fill="none" xmlns="http://www.w3.org/2000/svg">
<g clip-path="url(#clip0_11_78)">
<path d="M129.601 79.5336C128.18 80.0149 127.282 81.1694 126.334 82.2028C122.295 86.6543 118.607 91.3762 115.794 96.7094C114.119 99.8638 112.956 103.217 112.255 106.72C111.489 110.595 110.861 114.518 109.897 118.342C108.714 123.056 107.244 127.705 105.879 132.379C105.654 133.156 105.356 133.93 104.716 134.491C104.313 134.836 103.852 135.018 103.305 134.869C102.757 134.72 102.458 134.339 102.351 133.809C102.077 132.5 102.035 131.193 102.192 129.865C102.788 124.937 103.263 119.986 104.483 115.15C106.238 108.169 107.81 101.133 109.609 94.1585C110.664 90.0301 112.025 85.9924 113.23 81.8953C113.706 80.2373 114.151 78.5703 114.538 76.8992C114.635 76.4632 114.278 76.165 113.793 76.207C113.493 76.2309 113.101 76.2277 112.915 76.4048C111.669 77.6352 110.1 77.608 108.519 77.843C106.725 78.101 104.998 78.8237 103.256 79.3759C98.7937 80.7679 94.3314 82.16 89.874 83.58C88.4053 84.0407 87.1075 84.7313 85.9489 85.8017C83.7226 87.8833 81.314 89.7515 78.5802 91.1715C77.3989 91.7838 76.2407 92.3631 74.9036 92.584C74.0467 92.7349 73.829 93.062 74.0209 93.8226C74.3517 95.2086 74.6942 96.5781 75.1068 97.9352C76.1743 101.531 77.3517 105.093 79.235 108.387C80.2207 110.12 81.4754 111.488 83.2353 112.434C83.9397 112.816 84.6747 113.206 85.1707 113.884C85.4199 114.231 85.5476 114.627 85.3423 115.024C85.0956 115.515 84.6616 115.765 84.0907 115.649C82.7095 115.372 81.6609 114.517 80.9315 113.417C80.0074 112.035 78.7563 111.345 77.2264 110.965C73.1935 109.941 69.1764 108.843 65.1138 107.897C62.4397 107.27 59.7076 106.971 57.0311 106.33C51.3444 104.963 45.5276 104.831 39.7446 104.809C33.4411 104.792 27.1625 105.493 20.9882 106.869C19.3989 107.221 17.897 107.904 16.2468 107.992C15.5296 108.032 14.8156 108.172 14.1424 107.886C13.9071 107.783 13.6958 107.488 13.6068 107.229C13.5129 106.943 13.623 106.663 13.919 106.452C14.4482 106.085 15.0267 105.997 15.6406 105.947C19.3202 105.704 22.8008 104.412 26.4022 103.807C27.1749 103.671 27.8786 103.143 28.6217 102.839C29.7574 102.379 30.8716 101.88 32.0436 101.543C39.3745 99.4154 46.4311 96.4691 53.6516 94.0428C58.7537 92.336 63.8196 90.5056 68.9094 88.7287C69.197 88.6348 69.5012 88.5524 69.7698 88.4329C70.8866 87.9475 71.1266 87.5008 70.9451 86.3052C70.3094 82.1999 69.5167 78.1079 69.0521 73.987C68.2111 66.7406 67.485 59.4884 67.4432 52.1736C67.4178 48.4086 67.3552 44.6791 67.9891 40.957C68.161 39.9591 68.3471 38.9587 68.6107 37.988C68.7127 37.5801 69.1236 37.3633 69.5796 37.4853C70.0215 37.6097 70.2286 37.9632 70.272 38.3744C70.2957 38.6735 70.3267 39.0146 70.2117 39.2659C69.0093 42.0627 69.1098 45.0202 69.06 47.9463C68.9067 55.4688 69.6417 62.936 70.2337 70.414C70.5546 74.4591 71.2012 78.4613 71.8196 82.4685C71.8886 82.8607 72.056 83.2356 72.2606 83.5751C72.306 83.6682 72.719 83.7111 72.777 83.6287C73.16 83.1713 73.524 82.6884 73.8409 82.1849C76.5402 77.8537 79.6788 73.8785 83.3061 70.2938C84.0943 69.5052 84.965 68.7742 86.0404 68.3827C86.5991 68.1833 87.1835 67.9649 87.7573 68.4272C87.6425 69.2561 86.8516 69.4531 86.3348 69.8907C82.7981 72.8384 79.7526 76.1907 77.2983 80.1033C76.225 81.8231 74.956 83.4184 74.2056 85.3269C74.1071 85.5898 74.0654 85.9293 74.152 86.174C74.3366 86.647 74.8283 86.5604 75.2052 86.4797C76.001 86.3107 76.7919 86.1137 77.5565 85.8492C80.4394 84.8651 83.3125 83.8251 86.1929 82.827C87.0674 82.5287 87.8659 82.1282 88.5853 81.5249C89.4817 80.775 90.1955 80.0573 89.663 78.6779C89.2888 77.7039 89.5748 76.6137 90.102 75.741C91.5262 73.3818 93.1015 71.1404 95.594 69.7485C95.9371 69.5581 96.3322 69.4163 96.7206 69.3191C97.4041 69.1699 98.181 69.7986 98.1894 70.5048C98.1978 71.211 97.7791 71.8768 98.0809 72.6036L98.0313 72.569C99.1108 72.119 99.6646 71.0683 100.51 70.3563C100.901 70.0275 101.219 69.6106 101.636 69.3493C102.068 69.0856 102.587 68.9941 103.078 69.3122C103.488 69.5865 103.464 70.0241 103.402 70.4106C103.282 71.2115 103.087 71.9968 102.892 72.7821C102.697 73.5674 102.57 74.3264 102.966 75.3399C105.292 73.414 107.197 71.3168 109.229 69.3703C109.885 68.735 110.522 68.0741 111.365 67.6802C112.435 67.1742 113.519 67.821 113.466 69.0001C113.444 69.6973 113.248 70.396 113.078 71.0759C112.845 72.0556 112.567 73.0288 112.334 74.0086C112.318 74.0836 112.397 74.1998 112.476 74.4025C114.354 74.3752 115.68 73.6796 116.214 71.6937C116.91 69.145 117.728 66.6325 118.44 64.0953C118.754 63.0002 118.515 62.5511 117.375 62.4053C114.262 62 111.558 60.7139 109.071 58.841C107.086 57.3562 105.953 55.447 105.746 52.956C105.507 50.1964 105.737 47.4697 106.457 44.8155C108.413 37.4956 111.718 30.7615 115.717 24.3529C119.231 18.723 123.285 13.5323 128.376 9.21329C128.919 8.75675 129.456 8.2722 130.056 7.89229C131.402 7.06325 132.846 6.70802 134.436 7.02024C135.998 7.33741 136.96 8.19352 137.271 9.79952C137.554 11.2374 137.35 12.6309 137.073 14.0226C136.485 17.0147 135.44 19.8848 134.41 22.7525C132.701 27.5302 130.791 32.2281 129.083 37.0059C127.416 41.6897 125.888 46.4213 124.313 51.1323C123.451 53.7247 122.591 56.3311 121.793 58.9557C121.223 60.818 120.968 61.6717 123.848 61.7424C128.431 61.86 133.002 61.5755 137.559 61.1344C143.325 60.5672 149.049 59.7618 154.696 58.4357C156.199 58.0845 157.723 58.0185 159.245 58.1116C160.329 58.1807 161.554 58.2252 162.124 59.4101C162.428 60.0643 161.533 60.7417 159.784 61.3384C150.445 64.4842 141.097 67.6605 131.749 70.7502C128.957 71.6749 126.086 72.3969 123.262 73.226C121.997 73.6076 120.785 74.2109 119.49 74.4244C116.547 74.8991 116.692 75.7256 116.219 77.7297C115.088 82.5791 113.177 87.1904 111.969 92.0102C109.563 101.547 107.006 111.052 105.176 120.733C104.69 123.317 104.337 125.921 104.444 128.588C105.219 128.712 105.204 128.05 105.342 127.679C106.781 124.09 107.868 120.389 108.741 116.625C109.41 113.763 109.852 110.84 110.387 107.958C111.238 103.331 112.76 98.9764 114.997 94.8134C117.965 89.2939 121.96 84.5902 126.137 80.0133C127.231 78.8242 128.515 77.804 129.767 76.7748C130.221 76.3916 130.798 76.1311 131.366 75.9012C131.838 75.7026 132.375 75.6226 132.793 76.0256C133.212 76.4285 133.129 76.9484 132.908 77.4206C132.006 79.3703 130.747 81.1082 129.383 82.7349C126.114 86.6319 123.162 90.762 120.557 95.1344C120.088 95.9247 119.616 96.701 119.397 97.5917C118.964 99.3288 120.026 100.427 121.751 100.022C123.059 99.72 124.216 99.0541 125.26 98.235C128.94 95.3631 132.768 92.6675 136.005 89.2526C136.346 88.8892 136.78 88.5529 137.228 88.3873C141.132 86.9492 144.791 84.8609 148.885 83.9238C149.566 83.7606 150.215 83.4153 150.864 83.1565C151.446 82.9241 152.031 82.7922 152.644 82.901C154.988 83.2972 157.299 82.8472 159.616 82.5982C161.565 82.3995 163.299 81.4732 165.161 80.9433C166.553 80.5394 167.868 80.438 169.33 80.5129C172.25 80.6487 175.224 80.6741 178.055 79.6415C179.757 79.0242 181.596 78.8593 183.06 77.5473C183.723 76.954 184.825 77.4533 185.7 77.7326C185.869 77.7895 186.021 77.9938 186.109 78.166C186.756 79.4531 185.924 81.2314 184.553 81.5883C183.72 81.7927 182.948 81.6831 182.148 81.4195C181.257 81.1286 180.341 81.0298 179.451 81.4031C175.6 82.9764 171.49 82.9923 167.446 83.2273C165.998 83.309 164.639 83.4903 163.283 83.9313C161.639 84.4661 159.942 84.7794 158.206 84.955C156.797 85.1017 155.393 85.349 153.98 85.5543C153.376 85.6606 152.775 85.8674 152.182 85.8708C147.558 85.9336 143.56 87.8217 139.568 89.9108C134.836 92.4045 131.062 96.145 126.821 99.2888C125.337 100.402 123.84 101.359 122.039 101.907C118.203 103.073 116.84 99.6882 117.494 97.2334C117.746 96.2792 118.31 95.3711 118.857 94.5239C121.497 90.4342 124.151 86.3419 127.32 82.6213C128.172 81.6193 128.887 80.4969 129.657 79.4372L129.67 79.3482L129.65 79.4817L129.601 79.5336ZM107.114 53.8129C107.249 55.4066 108.222 56.9829 109.99 58.0581C111.11 58.742 112.223 59.4704 113.398 60.0579C114.861 60.7969 116.442 61.1396 118.1 61.1799C118.783 61.1898 119.294 60.9697 119.523 60.294C119.983 58.9566 120.457 57.6167 120.886 56.2703C122.698 50.68 124.401 45.051 126.354 39.5226C128.439 33.5953 130.79 27.78 132.967 21.8799C133.703 19.8874 134.283 17.8355 134.866 15.7977C135.289 14.3367 135.485 12.8147 135.448 11.2903C135.414 9.44776 134.238 8.52821 132.435 8.90324C131.431 9.12331 130.504 9.53207 129.71 10.2062C128.16 11.5189 126.569 12.7666 125.179 14.2532C121.131 18.5762 117.775 23.3697 114.838 28.4936C111.789 33.7964 109.424 39.3685 107.704 45.2315C106.927 47.8956 106.709 50.6059 107.128 53.8105L107.114 53.8129ZM32.2579 103.831C32.795 103.837 33.0883 103.858 33.3742 103.837C38.0296 103.624 42.7106 103.392 47.3529 103.846C51.0799 104.201 54.7925 104.804 58.4845 105.454C63.5833 106.361 68.5669 107.766 73.5728 109.051C74.6492 109.324 75.7413 109.522 76.845 109.703C77.4109 109.791 77.7725 109.294 77.6152 108.73C77.5353 108.441 77.453 108.137 77.3334 107.87C75.7059 104.054 74.2537 100.165 73.2668 96.1216C72.8561 94.4464 72.3073 92.8099 71.761 91.1875C71.4479 90.2316 70.8739 90.0149 69.8754 90.3495C63.3426 92.5682 56.7974 94.7167 50.2958 97.0309C44.858 98.9701 39.4276 100.951 33.9248 102.685C33.3611 102.857 32.7314 102.982 32.2555 103.817L32.2579 103.831ZM156.728 59.941C154.368 60.3565 152.275 60.7249 150.182 61.0934C144.071 62.169 137.912 62.9785 131.718 63.0868C128.482 63.1364 125.24 63.5626 121.989 63.1096C121.23 62.9976 120.527 63.2802 120.278 64.0894C119.56 66.5121 118.553 68.8557 118.111 71.3599C117.905 72.5803 118.197 72.9189 119.369 72.5827C124.152 71.2063 128.939 69.8439 133.677 68.3745C136.575 67.4745 139.4 66.3273 142.285 65.3573C146.525 63.9323 150.793 62.5889 155.039 61.206C155.6 61.0206 156.24 60.9513 156.714 59.9435L156.728 59.941ZM91.5432 80.8021C93.9121 80.8473 95.3201 79.8774 96.8738 79.4883C100.559 78.5364 100.552 78.4944 100.305 74.8695C100.279 74.5564 100.233 74.2177 99.898 74.2046C99.6352 74.193 99.2847 74.3414 99.0987 74.5185C96.9195 76.6207 94.6149 78.5862 91.5597 80.8136L91.5432 80.8021ZM81.9767 86.111C79.5219 86.9763 77.0671 87.8417 74.6148 88.721C74.1378 88.8916 73.707 89.2419 73.8858 89.8459C74.0546 90.3938 74.5767 90.5619 75.0741 90.5899C75.4682 90.6072 75.9111 90.5725 76.245 90.4127C78.3935 89.3702 80.5535 88.3112 81.9627 86.1134L81.9767 86.111ZM110.914 70.547C110.21 71.0752 109.93 71.2112 109.737 71.4329C108.34 72.8774 106.96 74.3335 105.596 75.8012C105.487 75.9215 105.433 76.191 105.488 76.3401C105.524 76.4637 105.772 76.6368 105.913 76.612C109.019 76.2386 109.885 75.4796 110.647 72.4859C110.767 72.017 110.784 71.5374 110.928 70.5445L110.914 70.547ZM95.0943 72.1761C94.4045 72.9474 93.6304 73.7335 92.9248 74.5798C92.4235 75.188 91.7908 75.7904 92.0263 76.7166C92.1671 77.2695 93.1071 76.6852 94.0246 75.3972C94.6037 74.5732 95.0979 73.6774 95.5969 72.8097C95.6639 72.6968 95.5493 72.457 95.5057 72.2914C95.4958 72.2354 95.3364 72.2346 95.1084 72.1736L95.0943 72.1761Z" fill="white"/>
</g>
<defs>
<clipPath id="clip0_11_78">
<rect width="175" height="121" fill="white" transform="translate(0 30.3364) rotate(-9.98269)"/>
</clipPath>
</defs>
</svg>
